<!--
  - Created by Martin Dünkelmann on 05.01.22, 07:48
  - Copyright (c) 2022. All rights reserved.
  -
  - Last modified 05.01.22, 07:48
  -->

<svg id="Ebene_1" data-name="Ebene 1" xmlns="http://www.w3.org/2000/svg" viewBox="0 0 36.12 841.89">
  <defs>
    <style>.cls-1{fill:none;}.cls-2{clip-path:url(#clip-path);}.cls-3{fill:#fff;}.cls-4{fill:#ea5b0c;}</style>
    <clipPath id="clip-path" transform="translate(0.23 -0.89)">
      <rect class="cls-1" y="0.89" width="35.89" height="841.89"/>
    </clipPath>
  </defs>
  <g class="cls-2">
    <polygon class="cls-3" points="0.23 263.2 0.23 297.64 36.12 297.64 36.12 263.2 0.23 263.2 0.23 263.2"/>
    <polygon points="0.23 0 0.23 263.2 36.12 263.2 36.12 0 0.23 0 0.23 0"/>
  </g>
  <path class="cls-3"
        d="M22.65,238.84c-.27-3.45-2-5-5.92-5H13.44c-4.24,0-5.95,1.75-5.95,6v16.63h24v-5.88H23.1v-5.76l8.35-5.54v-6.44l-8.8,6Zm-10.78,3.29c0-1.81.58-2.36,2.4-2.36h2.19c1.81,0,2.39.55,2.39,2.36v8.46h-7v-8.46ZM7.49,231.89h5.2v-8.28H31.45v-5.89H12.69v-8.28H7.49v22.45Zm24-41c0-4.52-2.09-6.64-6.64-6.64h-3v5.68h1.95c2.09,0,2.81.72,2.81,2.81v6.23c0,2-.72,2.8-2.81,2.8H15.22c-2.08,0-2.8-.75-2.8-2.8V192.7c0-2.09.72-2.81,2.8-2.81h1.72v-5.68H14.13c-4.55,0-6.64,2.12-6.64,6.64V201c0,4.52,2.09,6.64,6.64,6.64H24.81c4.55,0,6.64-2.12,6.64-6.64V190.85Z"
        transform="translate(0.23 -0.89)"/>
  <path class="cls-4"
        d="M18.91,168.36,7.37,156.69v7.9L18.46,175H7.37v5.89h24V175H19.66l11.68-10.58v-7.87L18.91,168.36ZM5.66,145.73H2.17V150H5.66v-4.25Zm0-7.26H2.17v4.25H5.66v-4.25Zm25.68.24c0-4.52-2.09-6.64-6.65-6.64H14c-4.55,0-6.64,2.12-6.64,6.64v11c0,4.51,2.09,6.64,6.64,6.64H24.69c4.56,0,6.65-2.13,6.65-6.64v-11Zm-5,9c0,2.06-.76,2.81-2.81,2.81H15.18c-2.06,0-2.81-.75-2.81-2.81v-6.91c0-2.09.75-2.81,2.81-2.81h8.35c2,0,2.81.72,2.81,2.81v6.91Zm-19-25v5.88h24V109.78H26.13v12.88ZM22.64,89.11,7.37,102.39v5h24V101.7H15.76L31.34,88.15V83.42h-24v5.69Z"
        transform="translate(0.23 -0.89)"/>
  <polygon class="cls-4" points="5.65 0 5.65 65.06 30.49 65.06 30.49 0 5.65 0 5.65 0"/>
  <polygon points="7.51 65.91 12.85 44.65 18.07 65.91 7.51 65.91 7.51 65.91"/>
  <g class="cls-2">
    <polygon points="18.07 65.91 23.41 44.65 28.63 65.91 18.07 65.91 18.07 65.91"/>
    <path class="cls-4"
          d="M5,270.92H4l-3.89.37v1.76l2.76-.26V278H-.23v1.68H7.66V278H5v-7.1Zm5.56,0c-1.29,0-1.88.57-1.88,1.88v1.83c0,1.31.59,1.89,1.88,1.89h2.8a1.6,1.6,0,0,0,1.27-.42v.82c0,.75-.26,1-1,1H9.08v1.75H14.3a2.11,2.11,0,0,0,2.43-2.43V272.8c0-1.31-.59-1.88-1.88-1.88Zm.91,3.94c-.54,0-.71-.16-.71-.7v-.86c0-.54.17-.7.71-.7H14c.54,0,.7.16.7.7v.86c0,.54-.16.7-.7.7Zm6.44-2.11h5.33l-2,2.18a3.74,3.74,0,0,0-.78,1.22,4.9,4.9,0,0,0-.2,1.61v1.94h2.13v-2a3.37,3.37,0,0,1,.12-1,2,2,0,0,1,.46-.76l3.06-3.42v-1.58H17.93v1.83ZM35.16,278H29.34v-.71c0-.5.16-.66.71-.75l3.36-.5c1.32-.2,1.88-.7,1.88-2V272.8c0-1.31-.59-1.88-1.88-1.88H29.32c-1.3,0-1.89.57-1.89,1.88v.83h2v-.33c0-.54.17-.7.71-.7h2.36c.54,0,.7.16.7.7v.35c0,.5-.19.67-.7.76l-3.37.5c-1.32.2-1.88.7-1.88,2v2.83h7.9V278Z"
          transform="translate(0.23 -0.89)"/>
    <path class="cls-4"
          d="M7.9,290.54H2.08v-.7c0-.51.17-.67.71-.76l3.36-.5c1.32-.2,1.88-.7,1.88-2v-1.23c0-1.31-.58-1.88-1.88-1.88H2.06c-1.29,0-1.88.57-1.88,1.88v.83h2v-.33c0-.54.17-.7.71-.7H5.25c.54,0,.7.16.7.7v.35c0,.51-.19.67-.7.76l-3.37.5c-1.32.2-1.88.7-1.88,2v2.84H7.9v-1.76Zm6.89,1.76a2.13,2.13,0,0,0,2.44-2.44v-3.92a2.12,2.12,0,0,0-2.44-2.43H11.63a2.12,2.12,0,0,0-2.44,2.43v3.92a2.13,2.13,0,0,0,2.44,2.44Zm-2.49-1.79c-.76,0-1-.26-1-1v-3.16c0-.77.27-1,1-1h1.81c.77,0,1,.26,1,1v3.16c0,.77-.26,1-1,1Zm14,0H20.47v-.7c0-.51.16-.67.7-.76l3.37-.5c1.31-.2,1.88-.7,1.88-2v-1.23c0-1.31-.59-1.88-1.88-1.88h-4.1c-1.29,0-1.88.57-1.88,1.88v.83h2v-.33c0-.54.16-.7.7-.7h2.36c.54,0,.71.16.71.7v.35c0,.51-.19.67-.71.76l-3.36.5c-1.32.2-1.89.7-1.89,2v2.84h7.9v-1.76Zm9.19,0H29.66v-.7c0-.51.16-.67.7-.76l3.37-.5c1.32-.2,1.88-.7,1.88-2v-1.23c0-1.31-.59-1.88-1.88-1.88h-4.1c-1.29,0-1.88.57-1.88,1.88v.83h2v-.33c0-.54.16-.7.7-.7h2.36c.54,0,.71.16.71.7v.35c0,.51-.19.67-.71.76l-3.36.5c-1.32.2-1.88.7-1.88,2v2.84h7.89v-1.76Z"
          transform="translate(0.23 -0.89)"/>
    <polygon class="cls-4" points="0.23 297.64 0.23 841.89 36.12 841.89 36.12 297.64 0.23 297.64 0.23 297.64"/>
  </g>
</svg>
